<svg width="28" height="28" viewBox="0 0 28 28" fill="none" xmlns="http://www.w3.org/2000/svg">
  <!-- Main sketchy heart - irregular, hand-drawn feel -->
  <path d="M14 6.2c-.4-2-2-3.6-3.9-3.6C6.8 2.6 4.5 5 4.5 8c0 2.8 2.5 5.5 6.5 9l3 2.7 3-2.7c4-3.5 6.5-6.2 6.5-9 0-3-2.3-5.4-5.6-5.4-1.9 0-3.5 1.6-3.9 3.6z"
        stroke="rgba(255,255,255,0.6)" strokeWidth="1.3" fill="none" strokeLinecap="round" strokeLinejoin="round"
        stroke-dasharray="none"/>
  <!-- Loose sketch line - overlaps imperfectly -->
  <path d="M13.8 7c-.3-1.4-1.3-2.6-2.7-2.8C9 3.8 7 5.3 6.5 7.2"
        stroke="rgba(255,255,255,0.28)" strokeWidth="0.8" fill="none" strokeLinecap="round"
        stroke-dasharray="2.2 2" opacity="0.7"/>
  <!-- Small hatch fill on left lobe -->
  <path d="M8.2 8.5l.8.6M7.8 10l1 .5M9.5 6.8l.5.8"
        stroke="rgba(255,255,255,0.2)" strokeWidth="0.6" strokeLinecap="round" opacity="0.5"/>
  <!-- Quick cross-hatch inside -->
  <path d="M9 7.2l.7.7M8.5 8l1 .3"
        stroke="rgba(255,255,255,0.18)" strokeWidth="0.5" strokeLinecap="round" opacity="0.4"/>
  <!-- Subtle second sketch outline -->
  <path d="M14 5.5c.5-1.7 2-3 3.8-3 2.7 0 4.8 2 4.8 4.8"
        stroke="rgba(255,255,255,0.2)" strokeWidth="0.6" fill="none" strokeLinecap="round"
        stroke-dasharray="1.5 2.5" opacity="0.5"/>
</svg>
